<?xml version="1.0" standalone="no"?>
<!DOCTYPE svg PUBLIC "-//W3C//DTD SVG 20010904//EN"
 "http://www.w3.org/TR/2001/REC-SVG-20010904/DTD/svg10.dtd">
<svg version="1.0" xmlns="http://www.w3.org/2000/svg"
 width="1536.000000pt" height="1024.000000pt" viewBox="0 0 1536.000000 1024.000000"
 preserveAspectRatio="xMidYMid meet">

<g transform="translate(0.000000,1024.000000) scale(0.100000,-0.100000)"
fill="#000000" stroke="none">
<path d="M4128 7013 c161 -2 422 -2 580 0 158 1 26 2 -293 2 -319 0 -448 -1
-287 -2z"/>
<path d="M3721 6894 c0 -11 3 -14 6 -6 3 7 2 16 -1 19 -3 4 -6 -2 -5 -13z"/>
<path d="M5091 6874 c0 -11 3 -14 6 -6 3 7 2 16 -1 19 -3 4 -6 -2 -5 -13z"/>
<path d="M4147 6833 c133 -2 353 -2 490 0 136 1 28 2 -242 2 -269 0 -381 -1
-248 -2z"/>
<path d="M4891 6784 c0 -11 3 -14 6 -6 3 7 2 16 -1 19 -3 4 -6 -2 -5 -13z"/>
<path d="M3872 6760 c0 -14 2 -19 5 -12 2 6 2 18 0 25 -3 6 -5 1 -5 -13z"/>
<path d="M5071 6764 c0 -11 3 -14 6 -6 3 7 2 16 -1 19 -3 4 -6 -2 -5 -13z"/>
<path d="M3691 6754 c0 -11 3 -14 6 -6 3 7 2 16 -1 19 -3 4 -6 -2 -5 -13z"/>
<path d="M4157 6723 c133 -2 353 -2 490 0 136 1 28 2 -242 2 -269 0 -381 -1
-248 -2z"/>
<path d="M5062 6705 c0 -16 2 -22 5 -12 2 9 2 23 0 30 -3 6 -5 -1 -5 -18z"/>
<path d="M3672 6650 c0 -14 2 -19 5 -12 2 6 2 18 0 25 -3 6 -5 1 -5 -13z"/>
<path d="M5051 6644 c0 -11 3 -14 6 -6 3 7 2 16 -1 19 -3 4 -6 -2 -5 -13z"/>
<path d="M4098 6613 c106 -2 277 -2 380 0 103 1 16 2 -193 2 -209 0 -293 -1
-187 -2z"/>
<path d="M3661 6594 c0 -11 3 -14 6 -6 3 7 2 16 -1 19 -3 4 -6 -2 -5 -13z"/>
<path d="M5042 6580 c0 -14 2 -19 5 -12 2 6 2 18 0 25 -3 6 -5 1 -5 -13z"/>
<path d="M4691 6564 c0 -11 3 -14 6 -6 3 7 2 16 -1 19 -3 4 -6 -2 -5 -13z"/>
<path d="M3651 6544 c0 -11 3 -14 6 -6 3 7 2 16 -1 19 -3 4 -6 -2 -5 -13z"/>
<path d="M5031 6524 c0 -11 3 -14 6 -6 3 7 2 16 -1 19 -3 4 -6 -2 -5 -13z"/>
<path d="M4053 6503 c115 -2 299 -2 410 0 111 1 18 2 -208 2 -225 0 -316 -1
-202 -2z"/>
<path d="M5021 6464 c0 -11 3 -14 6 -6 3 7 2 16 -1 19 -3 4 -6 -2 -5 -13z"/>
<path d="M3621 6394 c0 -11 3 -14 6 -6 3 7 2 16 -1 19 -3 4 -6 -2 -5 -13z"/>
<path d="M3998 6383 c89 -2 235 -2 325 0 89 1 16 3 -163 3 -179 0 -252 -2
-162 -3z"/>
<path d="M5002 6340 c0 -14 2 -19 5 -12 2 6 2 18 0 25 -3 6 -5 1 -5 -13z"/>
<path d="M3601 6304 c0 -11 3 -14 6 -6 3 7 2 16 -1 19 -3 4 -6 -2 -5 -13z"/>
<path d="M4992 6290 c0 -14 2 -19 5 -12 2 6 2 18 0 25 -3 6 -5 1 -5 -13z"/>
<path d="M3263 6285 c-122 -33 -223 -118 -274 -230 -31 -68 -28 -53 -129 -785
-22 -162 -56 -401 -76 -530 -47 -318 -54 -378 -54 -501 0 -462 254 -801 725
-966 l80 -28 519 -3 c496 -3 522 -2 585 17 156 47 291 156 359 289 21 42 45
99 51 126 14 56 110 628 170 1016 22 140 65 408 96 595 90 546 94 682 25 821
-35 72 -116 151 -177 176 l-41 16 -27 -142 c-15 -77 -29 -150 -32 -162 -4 -17
1 -22 27 -27 42 -9 86 -55 99 -103 14 -52 19 -22 -215 -1289 -31 -165 -64
-347 -75 -405 -25 -136 -42 -186 -88 -257 -69 -108 -189 -192 -304 -214 -67
-12 -1209 -11 -1265 1 -113 26 -209 100 -253 195 -36 75 -37 118 -5 307 36
206 112 649 141 818 14 80 50 294 81 475 30 182 59 346 64 366 11 39 67 86
132 110 43 15 39 3 61 202 l13 127 -80 -1 c-45 0 -105 -7 -133 -14z"/>
<path d="M3987 6273 c94 -2 252 -2 350 0 98 1 21 2 -172 2 -192 1 -273 -1
-178 -2z"/>
<path d="M3591 6234 c0 -11 3 -14 6 -6 3 7 2 16 -1 19 -3 4 -6 -2 -5 -13z"/>
<path d="M4982 6230 c0 -14 2 -19 5 -12 2 6 2 18 0 25 -3 6 -5 1 -5 -13z"/>
<path d="M3582 6180 c0 -14 2 -19 5 -12 2 6 2 18 0 25 -3 6 -5 1 -5 -13z"/>
<path d="M4972 6160 c0 -14 2 -19 5 -12 2 6 2 18 0 25 -3 6 -5 1 -5 -13z"/>
<path d="M3571 6124 c0 -11 3 -14 6 -6 3 7 2 16 -1 19 -3 4 -6 -2 -5 -13z"/>
<path d="M4961 6094 c0 -11 3 -14 6 -6 3 7 2 16 -1 19 -3 4 -6 -2 -5 -13z"/>
<path d="M3561 6074 c0 -11 3 -14 6 -6 3 7 2 16 -1 19 -3 4 -6 -2 -5 -13z"/>
<path d="M4948 6015 c-3 -14 -1 -25 3 -25 5 0 9 11 9 25 0 14 -2 25 -4 25 -2
0 -6 -11 -8 -25z"/>
<path d="M3551 6014 c0 -11 3 -14 6 -6 3 7 2 16 -1 19 -3 4 -6 -2 -5 -13z"/>
<path d="M3718 6003 c23 -2 61 -2 85 0 23 2 4 4 -43 4 -47 0 -66 -2 -42 -4z"/>
<path d="M4688 6003 c28 -2 76 -2 105 0 28 2 5 3 -53 3 -58 0 -81 -1 -52 -3z"/>
<path d="M6666 5959 c-75 -11 -172 -56 -225 -104 -22 -20 -55 -66 -72 -101
-28 -56 -32 -75 -32 -147 -1 -69 4 -92 28 -145 49 -110 120 -156 363 -237 170
-56 212 -86 212 -153 0 -111 -163 -166 -305 -103 -38 17 -92 68 -125 120 l-16
24 -97 -63 c-53 -34 -97 -67 -97 -74 0 -23 96 -131 149 -168 80 -56 151 -79
263 -85 166 -10 289 29 378 117 123 122 135 326 26 447 -56 62 -127 100 -283
152 -183 61 -233 92 -249 157 -17 69 54 143 145 152 91 8 163 -33 207 -119 13
-27 26 -49 29 -49 2 0 48 27 101 60 53 32 102 61 107 63 26 8 -89 151 -154
193 -87 55 -236 82 -353 63z"/>
<path d="M5890 5340 l0 -600 120 0 120 0 0 600 0 600 -120 0 -120 0 0 -600z"/>
<path d="M7350 5340 l0 -600 125 0 125 0 0 600 0 600 -125 0 -125 0 0 -600z"/>
<path d="M7750 5908 c37 -135 310 -1161 310 -1164 0 -2 60 -4 133 -4 l134 0
98 358 c54 196 101 366 105 377 9 24 5 38 115 -360 47 -170 91 -325 96 -342
l11 -33 134 0 c74 0 134 2 134 4 0 2 56 215 125 473 69 257 140 519 156 582
17 62 33 120 36 127 4 12 -18 14 -126 14 -72 0 -131 -2 -131 -5 0 -8 -180
-716 -197 -775 l-16 -55 -23 80 c-41 150 -191 700 -198 728 l-6 27 -100 0 -99
0 -15 -52 c-48 -168 -200 -727 -204 -750 -4 -28 -22 -40 -22 -16 0 7 -46 194
-102 415 l-103 403 -127 0 -126 0 8 -32z"/>
<path d="M9490 5340 l0 -600 375 0 375 0 0 115 0 115 -254 0 -253 0 1 125 1
125 223 2 223 3 2 113 2 112 -225 0 -225 0 0 130 0 130 253 0 252 0 0 115 0
115 -375 0 -375 0 0 -600z"/>
<path d="M10430 5340 l0 -600 380 0 380 0 0 115 0 115 -255 0 -255 0 0 125 0
125 225 0 225 0 0 115 0 115 -225 0 -225 0 0 130 0 130 250 0 250 0 0 115 0
115 -375 0 -375 0 0 -600z"/>
<path d="M11370 5340 l0 -600 125 0 125 0 2 276 3 277 205 -276 205 -275 148
-1 147 -1 -78 108 c-43 59 -103 141 -133 182 -29 41 -97 132 -150 201 l-96
126 213 289 213 289 -136 3 c-76 1 -142 1 -149 -2 -6 -2 -94 -120 -194 -260
-101 -141 -186 -259 -191 -262 -5 -3 -9 112 -9 260 l0 266 -125 0 -125 0 0
-600z"/>
<path d="M3486 5879 c-53 -13 -102 -52 -115 -91 -10 -32 -26 -118 -137 -768
-170 -1000 -168 -986 -156 -1028 22 -72 94 -144 171 -170 24 -9 207 -12 650
-12 592 0 618 1 660 20 63 29 115 73 154 133 56 85 67 125 147 572 22 127 49
273 60 325 11 52 33 174 50 270 17 96 49 274 71 395 25 135 39 234 36 258 -7
50 -38 82 -92 96 -55 14 -1441 13 -1499 0z m1407 -182 c13 -21 14 -33 2 -98
-7 -41 -25 -141 -39 -224 -35 -200 -33 -193 -61 -221 l-24 -24 -655 0 c-729 0
-686 -4 -686 69 0 20 18 136 40 256 38 203 43 222 68 242 l27 23 656 0 657 0
15 -23z m-1158 -812 c42 -41 29 -111 -27 -145 -25 -15 -51 -20 -106 -20 -64 0
-76 3 -97 25 -38 37 -33 79 14 126 38 39 40 39 115 39 68 0 80 -3 101 -25z
m440 0 c36 -35 34 -85 -5 -124 -35 -35 -78 -45 -155 -39 -67 6 -95 28 -95 75
0 77 50 113 158 113 64 0 76 -3 97 -25z m440 0 c44 -43 24 -119 -39 -149 -51
-24 -156 -22 -190 5 -31 24 -35 66 -10 108 27 46 61 60 142 61 64 0 76 -3 97
-25z m-950 -330 c17 -17 25 -35 25 -60 0 -77 -41 -105 -153 -105 -61 0 -79 4
-102 22 -24 19 -27 26 -22 67 4 34 12 52 36 73 29 26 38 28 112 28 72 0 82 -3
104 -25z m442 -1 c21 -22 25 -32 20 -66 -3 -26 -15 -51 -31 -67 -24 -23 -35
-26 -115 -29 -86 -4 -89 -3 -110 23 -33 43 -28 81 18 126 38 39 40 39 115 39
69 0 79 -3 103 -26z m435 -4 c26 -27 30 -36 25 -67 -4 -21 -18 -48 -32 -62
-22 -23 -35 -26 -109 -29 -48 -2 -92 1 -104 7 -52 28 -42 118 17 158 27 18 48
23 103 23 64 0 72 -2 100 -30z m-947 -325 c36 -35 34 -94 -2 -135 -23 -26 -38
-32 -84 -37 -100 -10 -159 25 -159 95 0 25 9 43 34 68 33 33 37 34 110 34 68
0 80 -3 101 -25z m440 0 c73 -72 -13 -175 -146 -175 -43 0 -55 5 -80 29 -34
34 -36 54 -11 99 28 53 67 72 145 72 59 0 71 -3 92 -25z m442 -1 c35 -35 27
-87 -21 -131 -28 -26 -45 -32 -99 -38 -76 -8 -115 5 -135 48 -18 37 -1 87 39
122 27 22 40 25 110 25 72 0 82 -2 106 -26z"/>
<path d="M4678 5703 c23 -2 61 -2 85 0 23 2 4 4 -43 4 -47 0 -66 -2 -42 -4z"/>
<path d="M4881 5664 c0 -11 3 -14 6 -6 3 7 2 16 -1 19 -3 4 -6 -2 -5 -13z"/>
<path d="M4871 5584 c0 -11 3 -14 6 -6 3 7 2 16 -1 19 -3 4 -6 -2 -5 -13z"/>
<path d="M3492 5480 c0 -14 2 -19 5 -12 2 6 2 18 0 25 -3 6 -5 1 -5 -13z"/>
<path d="M4821 5324 c0 -11 3 -14 6 -6 3 7 2 16 -1 19 -3 4 -6 -2 -5 -13z"/>
<path d="M3440 5216 c0 -8 4 -17 9 -20 5 -4 7 3 4 14 -6 23 -13 26 -13 6z"/>
<path d="M4801 5204 c0 -11 3 -14 6 -6 3 7 2 16 -1 19 -3 4 -6 -2 -5 -13z"/>
<path d="M3470 5180 c0 -6 7 -10 15 -10 8 0 15 2 15 4 0 2 -7 6 -15 10 -8 3
-15 1 -15 -4z"/>
<path d="M3468 5153 c7 -3 16 -2 19 1 4 3 -2 6 -13 5 -11 0 -14 -3 -6 -6z"/>
<path d="M3538 5143 c12 -2 32 -2 45 0 12 2 2 4 -23 4 -25 0 -35 -2 -22 -4z"/>
<path d="M3738 5143 c34 -2 90 -2 125 0 34 2 6 3 -63 3 -69 0 -97 -1 -62 -3z"/>
<path d="M4198 5143 c67 -2 177 -2 245 0 67 1 12 3 -123 3 -135 0 -190 -2
-122 -3z"/>
<path d="M6532 4334 c-82 -41 -131 -119 -132 -213 -1 -165 147 -280 311 -241
42 10 64 24 104 64 54 54 75 106 75 183 -2 177 -195 288 -358 207z m202 -81
c78 -58 88 -183 20 -254 -73 -76 -208 -50 -250 48 -33 77 -4 171 65 212 43 26
125 23 165 -6z"/>
<path d="M8915 4353 c-90 -24 -173 -133 -175 -229 0 -51 29 -132 62 -170 50
-56 101 -78 188 -78 64 -1 82 3 121 26 155 91 158 328 6 422 -37 23 -60 29
-114 32 -38 1 -77 0 -88 -3z m128 -87 c58 -25 90 -69 95 -131 5 -66 -9 -105
-53 -144 -90 -79 -228 -25 -251 97 -24 124 96 227 209 178z"/>
<path d="M10253 4341 c-49 -23 -73 -62 -73 -120 0 -57 34 -93 128 -131 89 -37
112 -54 112 -85 0 -64 -107 -69 -163 -7 l-19 20 -34 -20 c-19 -11 -34 -22 -34
-25 0 -18 27 -47 68 -70 82 -49 205 -33 247 31 26 39 29 89 10 130 -14 30 -31
43 -94 72 -114 53 -123 58 -135 77 -23 36 34 77 88 63 15 -4 38 -18 51 -32 23
-24 25 -25 54 -9 38 19 39 34 6 69 -52 56 -137 71 -212 37z"/>
<path d="M5900 4115 l0 -235 45 0 45 0 0 78 0 77 64 1 c44 1 75 8 98 21 106
62 105 217 -2 271 -37 18 -60 22 -147 22 l-103 0 0 -235z m214 134 c19 -15 26
-30 26 -55 0 -52 -28 -74 -95 -74 l-55 0 0 75 0 75 49 0 c34 0 56 -6 75 -21z"/>
<path d="M7080 4115 l0 -235 45 0 45 0 0 235 0 235 -45 0 -45 0 0 -235z"/>
<path d="M7370 4115 l0 -235 45 0 45 0 2 162 3 162 113 -162 113 -162 40 0 39
0 0 235 0 235 -40 0 -40 0 0 -162 c-1 -131 -3 -160 -13 -146 -7 9 -57 82 -112
162 l-100 145 -47 1 -48 0 0 -235z"/>
<path d="M7940 4310 l0 -40 70 0 70 0 0 -195 0 -195 45 0 45 0 0 195 0 195 70
0 70 0 0 40 0 40 -185 0 -185 0 0 -40z"/>
<path d="M9420 4115 l0 -235 46 0 45 0 -2 93 -2 92 82 3 81 3 0 39 0 40 -80 0
-80 0 0 60 0 60 100 0 100 0 0 40 0 40 -145 0 -145 0 0 -235z"/>
<path d="M10798 4202 c-32 -81 -73 -187 -92 -235 l-35 -88 46 3 c44 3 47 5 62
46 l15 42 102 0 101 0 17 -45 c17 -44 18 -45 63 -45 32 0 44 4 40 13 -8 19
-136 346 -158 405 -20 51 -21 52 -62 52 l-42 0 -57 -148z m162 -139 c0 -9 -19
-13 -65 -13 -36 0 -65 3 -65 6 0 4 15 46 33 95 l32 88 32 -82 c18 -45 32 -88
33 -94z"/>
<path d="M11310 4115 l0 -235 145 0 145 0 0 40 0 40 -105 0 -105 0 0 195 0
195 -40 0 -40 0 0 -235z"/>
<path d="M11780 4115 l0 -235 150 0 150 0 0 40 0 39 -107 3 -108 3 -3 58 -3
57 91 0 90 0 0 40 0 40 -90 0 -90 0 0 55 0 55 105 0 105 0 0 40 0 40 -145 0
-145 0 0 -235z"/>
</g>
</svg>
